<?xml version="1.0" encoding="UTF-8"?>
<svg id="Layer_3" data-name="Layer 3" xmlns="http://www.w3.org/2000/svg" viewBox="0 0 74.96 76.91">
  <defs>
    <style>
      .cls-1 {
        fill: #4384f6;
      }
    </style>
  </defs>
  <g id="Layer_1" data-name="Layer 1">
    <g>
      <path class="cls-1" d="M32.62,27.12c-8.4,4.47-10.47,15.04-3.67,24.15-6.8-9.11-19.3-11.93-28.95-6.8,9.65-5.14,12.39-15.4,7.02-22.6,5.37,7.2,17.21,9.72,25.6,5.25Z"/>
      <path class="cls-1" d="M58.67,67.16c1.55-4,.64-8.5-2.27-11.85l-13.7-15.76c-.55-.64-.09-1.5.82-1.55l20.82-1.47c3.96-.28,7.09-2.26,8.2-5.12l2.42-6.22c-.64-.03-1.3-.03-1.95.02l-30.99,2.05c-5.11.33-9.53,2.71-11.9,6.52-2.46,3.96-2.19,8.69.87,12.66l22.14,28.5c.53.7,1.13,1.36,1.75,1.96l3.79-9.75Z"/>
      <path class="cls-1" d="M54.6,23.53l-1.29-16.11c-.21-2.66-1.48-4.94-3.48-6.14-2.08-1.25-4.53-1.08-6.58.54l-5.78,4.62c-.33.2-.65.42-.94.65l-12.06,9.77c-.57.46-1.56.33-1.77-.23l-4.83-11.84c-.85-2.08-3.29-3.56-6.41-3.94l-7.1-.86c.03.35.1.7.22,1.05l6.11,18.66c1.14,3.5,4.75,6.07,9.7,6.77,4.97.7,9.99-.7,13.35-3.63l14.17-12.49.73,8.73c.17,2.06,1.22,3.67,2.72,4.23l3.25,1.21c.01-.33,0-.68-.02-1.01Z"/>
    </g>
  </g>
</svg>